v 0 0 0
v 30 0 0
v 30 22 0
v 0 22 0
v 0 0 0.2
v 30 0 0.2
v 30 22 0.2
v 0 22 0.2
v 0 0 0
v 30 0 0
v 30 0.3 0
v 0 0.3 0
v 0 0 4
v 30 0 4
v 30 0.3 4
v 0 0.3 4
v 0 21.7 0
v 30 21.7 0
v 30 22.0 0
v 0 22.0 0
v 0 21.7 4
v 30 21.7 4
v 30 22.0 4
v 0 22.0 4
v 0 0 0
v 0.3 0 0
v 0.3 22 0
v 0 22 0
v 0 0 4
v 0.3 0 4
v 0.3 22 4
v 0 22 4
v 29.7 0 0
v 30.0 0 0
v 30.0 22 0
v 29.7 22 0
v 29.7 0 4
v 30.0 0 4
v 30.0 22 4
v 29.7 22 4
v 1 12 0
v 13 12 0
v 13 21 0
v 1 21 0
v 1 12 4
v 13 12 4
v 13 21 4
v 1 21 4
v 17 12 0
v 29 12 0
v 29 21 0
v 17 21 0
v 17 12 4
v 29 12 4
v 29 21 4
v 17 21 4
v 17 1 0
v 29 1 0
v 29 10 0
v 17 10 0
v 17 1 4
v 29 1 4
v 29 10 4
v 17 10 4
v 1 1 0
v 16 1 0
v 16 10 0
v 1 10 0
v 1 1 4
v 16 1 4
v 16 10 4
v 1 10 4
f 1 2 3 4
f 5 6 7 8
f 1 2 6 5
f 2 3 7 6
f 3 4 8 7
f 4 1 5 8
f 9 10 11 12
f 13 14 15 16
f 9 10 14 13
f 10 11 15 14
f 11 12 16 15
f 12 9 13 16
f 17 18 19 20
f 21 22 23 24
f 17 18 22 21
f 18 19 23 22
f 19 20 24 23
f 20 17 21 24
f 25 26 27 28
f 29 30 31 32
f 25 26 30 29
f 26 27 31 30
f 27 28 32 31
f 28 25 29 32
f 33 34 35 36
f 37 38 39 40
f 33 34 38 37
f 34 35 39 38
f 35 36 40 39
f 36 33 37 40
f 41 42 43 44
f 45 46 47 48
f 41 42 46 45
f 42 43 47 46
f 43 44 48 47
f 44 41 45 48
f 49 50 51 52
f 53 54 55 56
f 49 50 54 53
f 50 51 55 54
f 51 52 56 55
f 52 49 53 56
f 57 58 59 60
f 61 62 63 64
f 57 58 62 61
f 58 59 63 62
f 59 60 64 63
f 60 57 61 64
f 65 66 67 68
f 69 70 71 72
f 65 66 70 69
f 66 67 71 70
f 67 68 72 71
f 68 65 69 72
